<svg height="512pt" viewBox="0 0 512 512" width="512pt" xmlns="http://www.w3.org/2000/svg"><path d="m474.835938 190.613281-24.96875-4.234375c-2.222657-6.1875-4.734376-12.257812-7.511719-18.160156l14.703125-20.570312c12.792968-17.972657 10.738281-42.246094-4.835938-57.667969l-30.003906-30.007813c-8.480469-8.480468-19.722656-13.152344-31.652344-13.152344-9.394531 0-18.378906 2.894532-25.917968 8.320313l-20.648438 14.707031c-6.386719-3.019531-12.867188-5.6875-19.390625-7.992187l-4.128906-24.464844c-3.632813-21.667969-22.21875-37.390625-44.195313-37.390625h-42.390625c-21.972656 0-40.558593 15.722656-44.183593 37.347656l-4.339844 25.421875c-6.128906 2.238281-12.171875 4.78125-18.089844 7.621094l-20.273438-14.601563c-7.601562-5.472656-16.621093-8.363281-26.085937-8.363281-12.046875 0-23.292969 4.679688-31.679687 13.179688l-30.074219 29.976562c-15.53125 15.53125-17.566407 39.785157-4.835938 57.667969l14.941407 20.992188c-2.753907 5.925781-5.230469 12.023437-7.417969 18.246093l-24.46875 4.128907c-21.664063 3.636718-37.386719 22.222656-37.386719 44.195312v42.390625c0 21.972656 15.722656 40.558594 37.347656 44.1875l25.421875 4.335937c2.238281 6.132813 4.785157 12.179688 7.621094 18.09375l-14.546875 20.234376c-12.792969 17.972656-10.738281 42.25 4.835938 57.667968l30.003906 30.007813c8.480468 8.480469 19.722656 13.152343 31.652344 13.152343 9.394531 0 18.378906-2.894531 25.914062-8.316406l20.992188-14.941406c5.515624 2.5625 11.234374 4.910156 17.105468 7.023438l4.160156 24.964843c3.636719 21.664063 22.222657 37.386719 44.195313 37.386719h42.488281c21.972656 0 40.5625-15.722656 44.191406-37.359375l4.234376-24.972656c6.1875-2.222657 12.257812-4.734375 18.160156-7.511719l20.503906 14.65625c7.601562 5.472656 16.621094 8.367188 26.085938 8.367188 11.925781 0 23.167968-4.671876 31.648437-13.152344l30.003906-30.007813c15.535157-15.53125 17.566407-39.785156 4.835938-57.667969l-14.71875-20.667968c2.851562-6.039063 5.371093-12.105469 7.539062-18.136719l24.933594-4.15625c21.664063-3.636719 37.386719-22.222656 37.386719-44.195313v-42.304687c.246094-21.996094-15.363282-40.605469-37.160156-44.277344zm7.160156 86.582031c0 7.261719-5.195313 13.40625-12.335938 14.605469l-33.070312 5.511719c-6.101563 1.015625-11.023438 5.320312-12.855469 11.238281-2.9375 9.519531-6.972656 19.25-11.984375 28.90625-2.835938 5.445313-2.382812 11.933594 1.179688 16.925781l19.488281 27.367188c4.203125 5.90625 3.527343 13.921875-1.609375 19.058594l-30.003906 30.003906c-2.855469 2.855469-6.464844 4.367188-10.4375 4.367188-3.132813 0-6.089844-.9375-8.597657-2.742188l-27.25-19.476562c-5.011719-3.597657-11.527343-4.050782-17-1.1875-9.164062 4.796874-18.902343 8.832031-28.945312 11.984374-5.859375 1.835938-10.136719 6.742188-11.15625 12.78125l-5.617188 33.105469c-1.199219 7.160157-7.34375 12.355469-14.609375 12.355469h-42.488281c-7.265625 0-13.40625-5.195312-14.605469-12.335938l-5.511718-33.070312c-1.007813-6.0625-5.273438-10.976562-11.132813-12.828125-9.898437-3.125-19.324219-7-28.023437-11.519531-2.371094-1.230469-4.9375-1.835938-7.492188-1.835938-3.304688 0-6.59375 1.015625-9.410156 3.019532l-27.738282 19.742187c-2.5 1.800781-5.34375 2.710937-8.453124 2.710937-3.972657 0-7.582032-1.507812-10.4375-4.367187l-30.058594-30.054687c-5.128906-5.078126-5.78125-13.070313-1.597656-18.949219l19.371093-26.945313c3.644531-5.058594 4.089844-11.621094 1.152344-17.140625-4.925781-9.238281-9.007813-18.925781-12.136719-28.796875-1.851562-5.820312-6.738281-10.074218-12.753906-11.101562l-33.523438-5.714844c-7.15625-1.203125-12.351562-7.347656-12.351562-14.609375v-42.390625c0-7.261719 5.195312-13.40625 12.363281-14.609375l32.664063-5.511719c6.105468-1.027344 11.023437-5.34375 12.839844-11.28125 3.082031-10.085937 7.046874-19.839844 11.785156-28.980468 2.820312-5.433594 2.367187-11.90625-1.183594-16.902344l-19.695312-27.671875c-4.207032-5.90625-3.53125-13.921875 1.589843-19.042969l30.105469-30.003906.109375-.113282c2.707031-2.753906 6.378906-4.269531 10.34375-4.269531 3.132813 0 6.09375.9375 8.554687 2.710938l27.0625 19.480469c5.066407 3.648437 11.636719 4.085937 17.136719 1.148437 9.238281-4.925781 18.925781-9.007813 28.785157-12.132813 5.820312-1.847656 10.074218-6.726562 11.109374-12.757812l5.71875-33.523438c1.199219-7.15625 7.34375-12.351562 14.609376-12.351562h42.390624c7.261719 0 13.40625 5.195312 14.609376 12.363281l5.511718 32.675781c1.03125 6.109376 5.355469 11.023438 11.296875 12.835938 10.128907 3.078125 20.230469 7.234375 30.03125 12.359375 5.445313 2.84375 11.933594 2.398437 16.949219-1.167969l27.429688-19.535156c2.496093-1.800781 5.339843-2.710938 8.453124-2.710938 3.96875 0 7.578126 1.507813 10.4375 4.367188l30.054688 30.054688c5.128906 5.078124 5.785156 13.070312 1.574219 18.980468l-19.496094 27.277344c-3.578125 5.015625-4.023437 11.523438-1.167969 16.976562 4.800782 9.164063 8.832032 18.902344 11.988282 28.949219 1.839843 5.859375 6.742187 10.132813 12.78125 11.152344l33.078124 5.613281.027344.003906c7.136719 1.199219 12.25 7.253907 12.148438 14.398438zm0 0"/><path d="m256 156.453125c-54.890625 0-99.546875 44.65625-99.546875 99.546875s44.65625 99.546875 99.546875 99.546875 99.546875-44.65625 99.546875-99.546875-44.65625-99.546875-99.546875-99.546875zm0 169.09375c-38.347656 0-69.546875-31.199219-69.546875-69.546875s31.199219-69.546875 69.546875-69.546875 69.546875 31.199219 69.546875 69.546875-31.199219 69.546875-69.546875 69.546875zm0 0"/></svg>