<svg version="1.1" viewBox="0.0 0.0 960.0 720.0" fill="none" stroke="none" stroke-linecap="square" stroke-miterlimit="10" xmlns:xlink="http://www.w3.org/1999/xlink" xmlns="http://www.w3.org/2000/svg"><clipPath id="p.0"><path d="m0 0l960.0 0l0 720.0l-960.0 0l0 -720.0z" clip-rule="nonzero"/></clipPath><g clip-path="url(#p.0)"><path fill="#000000" fill-opacity="0.0" d="m0 0l960.0 0l0 720.0l-960.0 0z" fill-rule="evenodd"/><path fill="#000000" fill-opacity="0.0" d="m220.61417 628.6142l-15.685028 -551.0867" fill-rule="evenodd"/><path stroke="#000000" stroke-width="1.0" stroke-linejoin="round" stroke-linecap="butt" d="m220.61417 628.6142l-15.685028 -551.0867" fill-rule="evenodd"/><path fill="#000000" fill-opacity="0.0" d="m206.76903 77.538055l469.85828 -14.771652" fill-rule="evenodd"/><path stroke="#000000" stroke-width="24.0" stroke-linejoin="round" stroke-linecap="butt" d="m206.76903 77.538055l469.85828 -14.771652" fill-rule="evenodd"/><path fill="#000000" fill-opacity="0.0" d="m203.07611 83.07612l16.629929 540.0" fill-rule="evenodd"/><path stroke="#000000" stroke-width="24.0" stroke-linejoin="round" stroke-linecap="butt" d="m203.07611 83.07612l16.629929 540.0" fill-rule="evenodd"/><path fill="#000000" fill-opacity="0.0" d="m674.76904 60.0l-5.543335 563.0866" fill-rule="evenodd"/><path stroke="#000000" stroke-width="24.0" stroke-linejoin="round" stroke-linecap="butt" d="m674.76904 60.0l-5.543335 563.0866" fill-rule="evenodd"/><path fill="#000000" fill-opacity="0.0" d="m224.30708 623.0761l443.0866 -0.9133911" fill-rule="evenodd"/><path stroke="#000000" stroke-width="24.0" stroke-linejoin="round" stroke-linecap="butt" d="m224.30708 623.0761l443.0866 -0.9133911" fill-rule="evenodd"/><path fill="#000000" fill-opacity="0.0" d="m204.0 77.538055l2.7716522 18.456696" fill-rule="evenodd"/><path stroke="#000000" stroke-width="1.0" stroke-linejoin="round" stroke-linecap="butt" d="m204.0 77.538055l2.7716522 18.456696" fill-rule="evenodd"/><path fill="#000000" fill-opacity="0.0" d="m304.61417 205.84514l-1.8582458 302.77167" fill-rule="evenodd"/><path stroke="#000000" stroke-width="24.0" stroke-linejoin="round" stroke-linecap="butt" d="m304.61417 205.84514l-1.8582458 302.77167" fill-rule="evenodd"/><path fill="#000000" fill-opacity="0.0" d="m402.46194 195.69292l-2.7716675 320.31494" fill-rule="evenodd"/><path stroke="#000000" stroke-width="24.0" stroke-linejoin="round" stroke-linecap="butt" d="m402.46194 195.69292l-2.7716675 320.31494" fill-rule="evenodd"/><path fill="#000000" fill-opacity="0.0" d="m482.76904 192.92389l-4.629944 322.14172" fill-rule="evenodd"/><path stroke="#000000" stroke-width="24.0" stroke-linejoin="round" stroke-linecap="butt" d="m482.76904 192.92389l-4.629944 322.14172" fill-rule="evenodd"/><path fill="#000000" fill-opacity="0.0" d="m574.15485 219.69292l5.543335 285.22833" fill-rule="evenodd"/><path stroke="#000000" stroke-width="24.0" stroke-linejoin="round" stroke-linecap="butt" d="m574.15485 219.69292l5.543335 285.22833" fill-rule="evenodd"/></g></svg>