<svg id="Capa_1" enable-background="new 0 0 551.13 551.13" height="512" viewBox="0 0 551.13 551.13" width="512" xmlns="http://www.w3.org/2000/svg"><path d="m223.896 103.337h-34.446v86.114h-86.114v34.446h86.114v86.114h34.446v-86.114h86.114v-34.446h-86.114z"/><path d="m364.345 339.991c30.506-36.023 49.003-82.523 49.003-133.317 0-113.967-92.708-206.674-206.674-206.674s-206.674 92.707-206.674 206.674 92.707 206.674 206.674 206.674c50.794 0 97.294-18.497 133.317-49.003l186.785 186.785 24.354-24.354s-186.785-186.785-186.785-186.785zm-157.671 38.911c-94.961 0-172.228-77.267-172.228-172.228s77.267-172.228 172.228-172.228 172.228 77.267 172.228 172.228-77.267 172.228-172.228 172.228z"/></svg>