<svg id="Capa_1" enable-background="new 0 0 512 512" height="512" viewBox="0 0 512 512" width="512" xmlns="http://www.w3.org/2000/svg"><g><path d="m467.5 218.79c5.523 0 10-4.477 10-10s-4.477-10-10-10h-37.882v-27.225h37.882c5.523 0 10-4.477 10-10s-4.477-10-10-10h-37.882v-16.361c0-2.651-1.052-5.193-2.926-7.068l-28.917-28.941c-1.875-1.877-4.42-2.932-7.074-2.932h-16.365v-37.848c0-5.523-4.477-10-10-10s-10 4.477-10 10v37.848h-27.23v-37.848c0-5.523-4.477-10-10-10s-10 4.477-10 10v37.848h-27.202v-35.836c0-33.32-27.11-60.427-60.434-60.427-27.264 0-50.959 18.428-58.186 44.029-20.782 2.112-40.037 11.3-54.896 26.343-16.78 16.99-26.021 39.501-26.021 63.386 0 11.853 2.34 23.593 6.827 34.476-14.037 7.459-26.081 18.186-35.211 31.443-11.437 16.608-17.483 36.079-17.483 56.309 0 37.241 20.362 70.644 52.689 87.78-4.482 10.863-6.82 22.593-6.82 34.448 0 23.885 9.241 46.396 26.021 63.386 14.858 15.043 34.113 24.231 54.895 26.343 7.226 25.618 30.923 44.057 58.187 44.057 33.323 0 60.434-27.107 60.434-60.427v-35.864h27.202v37.876c0 5.523 4.477 10 10 10s10-4.477 10-10v-37.876h27.23v37.876c0 5.523 4.477 10 10 10s10-4.477 10-10v-37.876h16.365c2.652 0 5.195-1.053 7.071-2.929l28.917-28.913c1.875-1.875 2.929-4.419 2.929-7.071v-16.39h37.88c5.523 0 10-4.477 10-10s-4.477-10-10-10h-37.882v-27.196h37.882c5.523 0 10-4.477 10-10s-4.477-10-10-10h-37.882v-27.224h37.882c5.523 0 10-4.477 10-10s-4.477-10-10-10h-37.882v-27.196zm-248.028 273.21c-16.589 0-31.194-10.201-37.343-24.932 7.294-1.306 14.406-3.525 21.245-6.663 9.939-4.563 18.828-10.808 26.419-18.562 3.863-3.947 3.796-10.278-.15-14.142-3.947-3.863-10.277-3.796-14.142.15-5.875 6-12.762 10.837-20.469 14.375-8.144 3.736-16.776 5.807-25.659 6.167-38.072-.628-69.004-32.056-69.004-70.182 0-12.047 3.095-23.917 8.95-34.329 1.412-2.509 1.673-5.505.717-8.22-.955-2.716-3.035-4.888-5.706-5.961-30.27-12.157-49.83-41.093-49.83-73.715 0-32.631 19.557-61.555 49.824-73.686 5.946-3.215 7.613-7.941 5.001-14.175-5.859-10.442-8.956-22.326-8.956-34.366 0-38.126 30.932-69.554 69.004-70.182 8.827.359 17.466 2.432 25.657 6.166 7.721 3.544 14.603 8.385 20.456 14.389 1.96 2.01 4.56 3.02 7.162 3.02 2.516 0 5.035-.944 6.979-2.839 3.955-3.855 4.035-10.187.18-14.141-7.576-7.771-16.47-14.031-26.458-18.616-6.86-3.127-13.962-5.341-21.221-6.646 6.149-14.719 20.754-24.91 37.344-24.91 22.295 0 40.434 18.136 40.434 40.427v122.603h-31.132l-26.531-26.528c2.824-5.155 4.33-10.963 4.33-17.004 0-9.476-3.69-18.385-10.393-25.086-13.832-13.83-36.34-13.831-50.173 0-6.701 6.701-10.392 15.61-10.392 25.085s3.69 18.384 10.392 25.085c6.916 6.915 16.001 10.373 25.086 10.373 5.86 0 11.716-1.448 16.995-4.325l29.472 29.469c2.133 1.909 4.49 2.886 7.071 2.929h35.274v42.956h-62.667c-4.332-14.694-17.948-25.455-34.039-25.455-19.552 0-35.458 15.905-35.458 35.455 0 19.565 15.906 35.483 35.458 35.483 16.094 0 29.712-10.773 34.041-25.483h62.665v42.956h-35.274c-.268 0-.498.014-.71.034-2.318.164-4.591 1.124-6.364 2.897l-29.473 29.493c-13.46-7.335-30.702-5.324-42.078 6.05-6.708 6.708-10.398 15.624-10.392 25.107.006 9.469 3.701 18.364 10.392 25.036 6.918 6.917 16.004 10.374 25.09 10.374 9.082 0 18.164-3.456 25.073-10.364 6.701-6.682 10.396-15.576 10.402-25.045.004-6.05-1.503-11.866-4.332-17.028l26.535-26.553h31.129v122.631c.002 22.292-18.136 40.428-40.431 40.428zm-32.899-352.501c0 4.133-1.61 8.019-4.533 10.942-6.036 6.035-15.855 6.035-21.891 0-2.923-2.923-4.533-6.809-4.533-10.942s1.61-8.02 4.533-10.942c6.036-6.034 15.856-6.034 21.891 0 2.923 2.922 4.533 6.808 4.533 10.942zm-7.888 116.487c0 8.537-6.947 15.483-15.486 15.483-8.523 0-15.458-6.946-15.458-15.483 0-8.521 6.935-15.455 15.458-15.455 8.539 0 15.486 6.933 15.486 15.455zm7.888 116.523c-.003 4.121-1.609 7.991-4.533 10.906-6.036 6.034-15.856 6.035-21.901-.01-2.914-2.905-4.521-6.775-4.523-10.896-.003-4.135 1.607-8.024 4.533-10.95 6.035-6.033 15.855-6.034 21.889-.001.001.001.002.002.003.004 0 0 .001.001.001.001 2.925 2.926 4.534 6.813 4.531 10.946zm223.045.144-23.058 23.056h-106.655v-29.634h90.073c5.523 0 10-4.477 10-10v-55.218c0-5.523-4.477-10-10-10s-10 4.477-10 10v45.218h-80.073v-180.15h80.073v45.104c0 5.523 4.477 10 10 10s10-4.477 10-10v-55.104c0-5.523-4.477-10-10-10h-90.073v-29.662h106.652l23.061 23.081z"/><path d="m369.979 245.958c-5.523 0-10 4.477-10 10v.028c0 5.523 4.477 9.986 10 9.986s10-4.491 10-10.014-4.478-10-10-10z"/></g></svg>