<svg height="435.646pt" viewBox="0 0 435.646 435.646" width="435.646pt" xmlns="http://www.w3.org/2000/svg"><path d="m297.824219 112h-160c-14.355469.015625-25.984375 11.648438-26 26v160c.015625 14.351562 11.644531 25.984375 26 26h160c14.351562-.015625 25.984375-11.648438 26-26v-160c-.015625-14.351562-11.648438-25.984375-26-26zm14 186c-.011719 7.726562-6.273438 13.992188-14 14h-160c-7.730469-.007812-13.992188-6.273438-14-14v-160c.007812-7.730469 6.269531-13.992188 14-14h160c7.726562.007812 13.992187 6.269531 14 14zm0 0"/><path d="m317.824219 82h-200c-19.875.023438-35.980469 16.125-36 36v200c.019531 19.871094 16.125 35.976562 36 36h200c19.871093-.023438 35.976562-16.128906 36-36v-200c-.023438-19.875-16.128907-35.976562-36-36zm24 236c-.015625 13.25-10.753907 23.984375-24 24h-200c-13.25-.015625-23.984375-10.75-24-24v-200c.011719-13.25 10.75-23.984375 24-24h200c13.246093.015625 23.984375 10.75 24 24zm0 0"/><path d="m239.441406 373.644531c-3.316406 0-6 2.6875-6 6v50c0 3.316407 2.683594 6 6 6 3.3125 0 6-2.683593 6-6v-50c0-3.3125-2.6875-6-6-6zm0 0"/><path d="m196.207031 373.644531c-3.316406 0-6 2.6875-6 6v50c0 3.316407 2.683594 6 6 6 3.3125 0 6-2.683593 6-6v-50c0-3.3125-2.6875-6-6-6zm0 0"/><path d="m152.972656 373.644531c-3.3125 0-6 2.6875-6 6v50c0 3.316407 2.6875 6 6 6s6-2.683593 6-6v-50c0-3.3125-2.6875-6-6-6zm0 0"/><path d="m282.675781 373.644531c-3.316406 0-6 2.6875-6 6v50c0 3.316407 2.683594 6 6 6 3.3125 0 6-2.683593 6-6v-50c0-3.3125-2.6875-6-6-6zm0 0"/><path d="m202.207031 56v-50c0-3.3125-2.6875-6-6-6-3.316406 0-6 2.6875-6 6v50c0 3.3125 2.683594 6 6 6 3.3125 0 6-2.6875 6-6zm0 0"/><path d="m245.441406 56v-50c0-3.3125-2.6875-6-6-6-3.316406 0-6 2.6875-6 6v50c0 3.3125 2.683594 6 6 6 3.3125 0 6-2.6875 6-6zm0 0"/><path d="m288.675781 56v-50c0-3.3125-2.6875-6-6-6-3.316406 0-6 2.6875-6 6v50c0 3.3125 2.683594 6 6 6 3.3125 0 6-2.6875 6-6zm0 0"/><path d="m158.972656 56v-50c0-3.3125-2.6875-6-6-6s-6 2.6875-6 6v50c0 3.3125 2.6875 6 6 6s6-2.6875 6-6zm0 0"/><path d="m429.644531 190.207031h-50c-3.3125 0-6 2.683594-6 6 0 3.3125 2.6875 6 6 6h50c3.316407 0 6-2.6875 6-6 0-3.316406-2.683593-6-6-6zm0 0"/><path d="m429.644531 233.441406h-50c-3.3125 0-6 2.683594-6 6 0 3.3125 2.6875 6 6 6h50c3.316407 0 6-2.6875 6-6 0-3.316406-2.683593-6-6-6zm0 0"/><path d="m429.644531 276.675781h-50c-3.3125 0-6 2.683594-6 6 0 3.3125 2.6875 6 6 6h50c3.316407 0 6-2.6875 6-6 0-3.316406-2.683593-6-6-6zm0 0"/><path d="m429.644531 146.972656h-50c-3.3125 0-6 2.6875-6 6s2.6875 6 6 6h50c3.316407 0 6-2.6875 6-6s-2.683593-6-6-6zm0 0"/><path d="m56 233.441406h-50c-3.3125 0-6 2.683594-6 6 0 3.3125 2.6875 6 6 6h50c3.3125 0 6-2.6875 6-6 0-3.316406-2.6875-6-6-6zm0 0"/><path d="m56 190.207031h-50c-3.3125 0-6 2.683594-6 6 0 3.3125 2.6875 6 6 6h50c3.3125 0 6-2.6875 6-6 0-3.316406-2.6875-6-6-6zm0 0"/><path d="m56 146.972656h-50c-3.3125 0-6 2.6875-6 6s2.6875 6 6 6h50c3.3125 0 6-2.6875 6-6s-2.6875-6-6-6zm0 0"/><path d="m56 276.675781h-50c-3.3125 0-6 2.683594-6 6 0 3.3125 2.6875 6 6 6h50c3.3125 0 6-2.6875 6-6 0-3.316406-2.6875-6-6-6zm0 0"/><path d="m212.214844 175.28125c-.882813-2.640625-4.179688-3.960938-7.480469-3.960938s-6.492187 1.320313-7.371094 3.960938l-21.890625 71.277344c-.089844.324218-.125.660156-.109375.992187 0 2.859375 4.070313 4.839844 7.261719 4.839844 1.980469 0 3.519531-.660156 4.070312-2.421875l4.507813-15.617188h27.171875l4.507812 15.617188c.550782 1.761719 2.089844 2.421875 3.960938 2.421875 3.300781 0 7.371094-2.089844 7.371094-4.839844-.019532-.339843-.09375-.675781-.222656-.992187zm-18.480469 49.71875 11-37.730469 11 37.730469zm0 0"/><path d="m248.734375 171.980469c-2.859375 0-5.832031 1.097656-5.832031 3.738281v72.820312c0 2.53125 2.972656 3.851563 5.832031 3.851563 2.96875 0 5.828125-1.320313 5.828125-3.851563v-72.816406c0-2.644531-2.859375-3.742187-5.828125-3.742187zm0 0"/></svg>