<svg width="402" height="402" xmlns="http://www.w3.org/2000/svg">
 <!-- Created with Method Draw - http://github.com/duopixel/Method-Draw/ -->
 <g>
  <title>background</title>
  <rect fill="none" id="canvas_background" height="404" width="404" y="-1" x="-1"/>
  <g display="none" overflow="visible" y="0" x="0" height="100%" width="100%" id="canvasGrid">
   <rect fill="url(#gridpattern)" stroke-width="0" y="0" x="0" height="100%" width="100%"/>
  </g>
 </g>
 <g>
  <title>Layer 1</title>
  <line stroke="#000" transform="rotate(0.4744679033756256 25.781747817982268,203.41500854492188) " stroke-linecap="null" stroke-linejoin="null" id="svg_2" y2="55.390911" x2="24.198939" y1="351.439074" x1="27.364557" fill-opacity="null" stroke-opacity="null" stroke-width="8" fill="none"/>
  <line stroke="#000" transform="rotate(0.4744679033756256 423.50830078124744,197.4375762939442) " stroke-linecap="null" stroke-linejoin="null" id="svg_18" y2="82.437191" x2="421.925471" y1="312.437945" x1="425.09109" fill-opacity="null" stroke-opacity="null" stroke-width="8" fill="none"/>
  <line stroke="#000" stroke-linecap="null" stroke-linejoin="null" id="svg_21" y2="30.4375" x2="358.000008" y1="30.4375" x1="38" fill-opacity="null" stroke-opacity="null" stroke-width="8" fill="none"/>
  <rect stroke="#000" id="svg_23" height="3" width="1" y="28.4375" x="28" fill-opacity="null" stroke-opacity="null" stroke-width="58" fill="none"/>
  <rect stroke="#000" id="svg_26" height="3" width="1" y="370.4375" x="28" fill-opacity="null" stroke-opacity="null" stroke-width="58" fill="none"/>
  <rect stroke="#000" id="svg_27" height="3" width="1" y="28.4375" x="372" fill-opacity="null" stroke-opacity="null" stroke-width="58" fill="none"/>
  <rect stroke="#000" id="svg_28" height="3" width="1" y="370.4375" x="373" fill-opacity="null" stroke-opacity="null" stroke-width="58" fill="none"/>
  <rect stroke="#000" id="svg_30" height="3" width="1" y="29.4375" x="202" fill-opacity="null" stroke-opacity="null" stroke-width="58" fill="none"/>
  <rect stroke="#000" id="svg_31" height="3" width="1" y="189.4375" x="29" fill-opacity="null" stroke-opacity="null" stroke-width="58" fill="none"/>
  <rect stroke="#000" id="svg_32" height="3" width="1" y="371.4375" x="199" fill-opacity="null" stroke-opacity="null" stroke-width="58" fill="none"/>
  <rect stroke="#000" id="svg_33" height="3" width="1" y="196.4375" x="372" fill-opacity="null" stroke-opacity="null" stroke-width="58" fill="none"/>
  <line stroke="#000" stroke-linecap="null" stroke-linejoin="null" id="svg_35" y2="372.4375" x2="369.000008" y1="372.4375" x1="49" fill-opacity="null" stroke-opacity="null" stroke-width="8" fill="none"/>
  <line stroke="#000" transform="rotate(0.4744679033756256 374.78173828124426,201.41500854492222) " stroke-linecap="null" stroke-linejoin="null" id="svg_36" y2="53.390911" x2="373.198939" y1="349.439074" x1="376.364557" fill-opacity="null" stroke-opacity="null" stroke-width="8" fill="none"/>
 </g>
</svg>