<?xml version="1.0" encoding="UTF-8" standalone="no"?>
<svg
   xmlns:dc="http://purl.org/dc/elements/1.1/"
   xmlns:cc="http://creativecommons.org/ns#"
   xmlns:rdf="http://www.w3.org/1999/02/22-rdf-syntax-ns#"
   xmlns:svg="http://www.w3.org/2000/svg"
   xmlns="http://www.w3.org/2000/svg"
   xmlns:sodipodi="http://sodipodi.sourceforge.net/DTD/sodipodi-0.dtd"
   xmlns:inkscape="http://www.inkscape.org/namespaces/inkscape"
   inkscape:version="1.0 (4035a4fb49, 2020-05-01)"
   sodipodi:docname="password3.svg"
   version="1.1"
   width="512"
   viewBox="0 0 24 24"
   height="512"
   enable-background="new 0 0 24 24"
   id="_x31__x2C_5">
  <metadata
     id="metadata4709">
    <rdf:RDF>
      <cc:Work
         rdf:about="">
        <dc:format>image/svg+xml</dc:format>
        <dc:type
           rdf:resource="http://purl.org/dc/dcmitype/StillImage" />
        <dc:title></dc:title>
      </cc:Work>
    </rdf:RDF>
  </metadata>
  <defs
     id="defs4707" />
  <sodipodi:namedview
     inkscape:current-layer="_x31__x2C_5"
     inkscape:window-maximized="1"
     inkscape:window-y="-9"
     inkscape:window-x="-9"
     inkscape:cy="281.60487"
     inkscape:cx="59.389447"
     inkscape:zoom="0.859375"
     showgrid="false"
     id="namedview4705"
     inkscape:window-height="1013"
     inkscape:window-width="1920"
     inkscape:pageshadow="2"
     inkscape:pageopacity="0"
     guidetolerance="10"
     gridtolerance="10"
     objecttolerance="10"
     borderopacity="1"
     bordercolor="#666666"
     pagecolor="#ffffff" />
  <path
     sodipodi:nodetypes="ssssssssssssssssss"
     style="stroke-width:0.084375;stroke-miterlimit:4;stroke-dasharray:none"
     id="path4696"
     d="M 18.75,24 H 5.25 C 4.01,24 3,22.991 3,21.75 V 11.25 C 3,10.009 4.01,9 5.25,9 h 13.5 C 19.99,9 21,10.009 21,11.25 v 10.5 C 21,22.991 19.99,24 18.75,24 Z M 4.7045454,10.009092 c -0.4130004,0 -0.8569176,0.826914 -0.8590908,1.240908 l -0.054546,10.390909 c -0.00217,0.413994 0.9370033,1.569824 1.35,1.568182 l 13.7181819,-0.05455 c 0.412997,-0.0016 1.299778,-0.936022 1.295455,-1.35 L 20.045455,11.359091 c -0.0043,-0.413977 -1.482456,-1.35 -1.895455,-1.35 z" />
  <path
     sodipodi:nodetypes="sssssssssssss"
     id="path4698"
     d="m 17.468182,9.5727269 c -0.414,0 -0.264861,0.8094161 -0.259091,0.3954549 l 0.05455,-3.9136364 c 0.03458,-2.480759 -2.782638,-5.20909087 -5.263638,-5.20909087 -2.4809989,0 -5.2090868,2.23718187 -5.20909,4.71818177 l -4.8e-6,3.7500001 c -6e-7,0.4139999 0.154909,0.259091 -0.259091,0.259091 C 6.1178182,9.5727274 6,10.164 6,9.75 V 6 c 0,-3.309 2.691,-6 6,-6 3.309,0 6,2.691 6,6 v 3.75 c 0,0.414 -0.117818,-0.1772731 -0.531818,-0.1772731 z" />
  <path
     sodipodi:nodetypes="ssssssssss"
     id="path4700"
     d="m 12,17 c -1.103,0 -2,-0.897 -2,-2 0,-1.103 0.897,-2 2,-2 1.103,0 2,0.897 2,2 0,1.103 -0.897,2 -2,2 z m 0,-2.990909 c -0.275,0 -0.990909,0.769454 -0.990909,1.045454 0,0.276 0.715909,0.881819 0.990909,0.881819 0.275,0 0.881818,-0.660364 0.881818,-0.936364 0,-0.276 -0.606818,-0.990909 -0.881818,-0.990909 z" />
  <path
     sodipodi:nodetypes="sssssss"
     id="path4702"
     d="m 11.890909,20.272727 c -0.414,0 -0.485483,-0.281536 -0.477273,-0.695455 l 0.05454,-2.75 c 0.0082,-0.413918 0.0087,-0.804545 0.422728,-0.804545 0.414,0 0.586364,0.336 0.586364,0.75 v 2.804545 c 0,0.414 -0.172364,0.695455 -0.586364,0.695455 z" />
</svg>
