<svg width="401" height="400" xmlns="http://www.w3.org/2000/svg">
 <!-- Created with Method Draw - http://github.com/duopixel/Method-Draw/ -->

 <g>
  <title>background</title>
  <rect fill="none" id="canvas_background" height="402" width="403" y="-1" x="-1"/>
  <g display="none" overflow="visible" y="0" x="0" height="100%" width="100%" id="canvasGrid">
   <rect fill="url(#gridpattern)" stroke-width="0" y="0" x="0" height="100%" width="100%"/>
  </g>
 </g>
 <g>
  <title>Layer 1</title>
  <!-- Created with Method Draw - http://github.com/duopixel/Method-Draw/ -->
  <!-- Created with Method Draw - http://github.com/duopixel/Method-Draw/ -->
  <rect stroke="#000" id="svg_83" height="9" width="9" y="26.5" x="78.5" stroke-width="46" fill="#ff0000"/>
  <rect stroke="#000" id="svg_84" height="9" width="9" y="26.5" x="252.5" stroke-width="46" fill="#ff0000"/>
  <rect stroke="#000" id="svg_85" height="9" width="9" y="149.5" x="368.5" stroke-width="46" fill="#ff0000"/>
  <rect stroke="#000" id="svg_86" height="9" width="9" y="364.5" x="368.5" stroke-width="46" fill="#ff0000"/>
  <rect stroke="#000" id="svg_87" height="9" width="9" y="364.5" x="197.5" stroke-width="46" fill="#ff0000"/>
  <rect stroke="#000" id="svg_88" height="9" width="9" y="364.5" x="23.5" stroke-width="46" fill="#ff0000"/>
  <rect stroke="#000" id="svg_89" height="9" width="9" y="154.5" x="23.5" stroke-width="46" fill="#ff0000"/>
  <line stroke-linecap="null" stroke-linejoin="null" id="svg_90" y2="30.5" x2="268.5" y1="31.5" x1="99.5" stroke-opacity="null" stroke-width="15" stroke="#000" fill="none"/>
  <line stroke-linecap="null" stroke-linejoin="null" id="svg_91" y2="32.5" x2="267.5" y1="147.5" x1="370.5" stroke-opacity="null" stroke-width="15" stroke="#000" fill="none"/>
  <line stroke-linecap="null" stroke-linejoin="null" id="svg_92" y2="162.5" x2="26.5" y1="361.5" x1="25.5" stroke-opacity="null" stroke-width="15" stroke="#000" fill="none"/>
  <line stroke-linecap="null" stroke-linejoin="null" id="svg_93" y2="370.5" x2="43.5" y1="368.5" x1="365.5" stroke-opacity="null" stroke-width="15" stroke="#000" fill="none"/>
  <line stroke-linecap="null" stroke-linejoin="null" id="svg_96" y2="30.5" x2="81.5" y1="150.5" x1="23.5" stroke-opacity="null" stroke-width="15" stroke="#000" fill="none"/>
  <line stroke-linecap="null" stroke-linejoin="null" id="svg_98" y2="145.5" x2="374.5" y1="358.5" x1="373.5" stroke-opacity="null" stroke-width="15" stroke="#000" fill="none"/>
 </g>
</svg>