<?xml version="1.0" encoding="iso-8859-1"?>
<!-- Generator: Adobe Illustrator 19.0.0, SVG Export Plug-In . SVG Version: 6.00 Build 0)  -->
<svg version="1.1" id="Layer_1" xmlns="http://www.w3.org/2000/svg" xmlns:xlink="http://www.w3.org/1999/xlink" x="0px" y="0px"
	 viewBox="0 0 512 512" style="enable-background:new 0 0 512 512;" xml:space="preserve">
<g>
	<g>
		<g>
			<path d="M496.659,312.128l-47.061-36.8c0.619-5.675,1.109-12.309,1.109-19.328s-0.512-13.653-1.109-19.328l47.104-36.821
				c8.747-6.912,11.157-19.179,5.568-29.397l-48.939-84.672c-5.355-9.749-17.365-14.208-28.309-10.176l-55.531,22.293
				c-10.624-7.68-21.781-14.165-33.323-19.349l-8.448-58.901C326.334,8.448,316.606,0,305.107,0h-98.133
				c-11.499,0-21.227,8.448-22.592,19.435l-8.469,59.115c-11.179,5.056-22.165,11.435-33.28,19.371l-55.68-22.357
				c-10.645-4.16-22.763,0.235-28.096,10.005l-49.003,84.8c-5.781,9.771-3.413,22.443,5.547,29.525l47.061,36.779
				c-0.747,7.211-1.109,13.461-1.109,19.328s0.363,12.117,1.067,19.328l-47.104,36.843C6.59,319.083,4.2,331.349,9.768,341.568
				l48.939,84.672c5.312,9.728,17.301,14.165,28.309,10.176l55.531-22.293c10.624,7.659,21.803,14.144,33.344,19.349l8.448,58.88
				c1.387,11.2,11.115,19.648,22.613,19.648h98.133c11.499,0,21.227-8.448,22.592-19.435l8.469-59.093
				c11.179-5.056,22.165-11.435,33.28-19.371l55.68,22.357c10.603,4.117,22.763-0.235,28.096-10.005l49.195-85.099
				C507.838,331.371,505.448,319.104,496.659,312.128z M483.752,330.901l-50.816,85.717l-61.077-24.533
				c-3.456-1.387-7.381-0.853-10.368,1.365c-13.227,9.899-26.005,17.344-39.104,22.699c-3.499,1.429-5.995,4.608-6.528,8.363
				l-10.773,66.155l-99.563-1.131l-9.323-65.003c-0.555-3.755-3.029-6.933-6.528-8.363c-13.632-5.589-26.752-13.205-39.019-22.635
				c-1.899-1.472-4.203-2.219-6.507-2.219c-1.344,0-2.688,0.235-3.989,0.768l-62.827,23.701l-48.939-84.672
				c-0.448-0.832-0.363-1.792,0.149-2.197l51.776-40.469c2.944-2.304,4.48-6.016,4.011-9.728c-1.131-8.939-1.643-16.171-1.643-22.72
				s0.533-13.76,1.643-22.72c0.469-3.733-1.067-7.424-4.011-9.728L28.286,181.12l50.816-85.717l61.077,24.533
				c3.477,1.408,7.381,0.875,10.389-1.365c13.205-9.92,26.005-17.344,39.104-22.699c3.499-1.451,5.973-4.629,6.507-8.363
				l10.795-66.176l99.584,1.152l9.301,65.024c0.555,3.755,3.029,6.933,6.528,8.363c13.611,5.568,26.731,13.184,39.019,22.635
				c3.008,2.304,6.955,2.859,10.475,1.429l62.827-23.701l48.939,84.672c0.448,0.832,0.363,1.771-0.149,2.176l-51.776,40.469
				c-2.944,2.304-4.48,5.995-4.011,9.728c0.811,6.485,1.643,14.272,1.643,22.72c0,8.469-0.832,16.235-1.643,22.72
				c-0.469,3.712,1.067,7.424,4.011,9.728l51.712,40.448C483.987,329.344,484.094,330.304,483.752,330.901z"/>
			<path d="M256.019,149.333c-58.816,0-106.667,47.851-106.667,106.667s47.851,106.667,106.667,106.667
				c58.816,0,106.667-47.851,106.667-106.667S314.835,149.333,256.019,149.333z M256.019,341.333
				c-47.061,0-85.333-38.272-85.333-85.333s38.272-85.333,85.333-85.333c47.061,0,85.333,38.272,85.333,85.333
				S303.08,341.333,256.019,341.333z"/>
		</g>
	</g>
</g>
<g>
</g>
<g>
</g>
<g>
</g>
<g>
</g>
<g>
</g>
<g>
</g>
<g>
</g>
<g>
</g>
<g>
</g>
<g>
</g>
<g>
</g>
<g>
</g>
<g>
</g>
<g>
</g>
<g>
</g>
</svg>
